#!OML:ASF E:\Mandelcareful walks\Project 1\Capture day 1\Session 1\Subject1.ASF
:FULLY-SPECIFIED
:DEGREES
608
root 5.8089 14.9731 -1.17561 -161.48 -48.3976 172.802
lowerback 31.9169 -3.16702 0.077912
upperback 5.26988 -4.55189 4.26392
thorax -10.3435 -2.50761 6.27338
lowerneck -31.3981 -4.92831 -6.35562
upperneck 17.6592 -4.52865 2.1805
head 10.9782 -2.22402 1.00065
rclavicle 3.49861e-014 -2.38542e-014
rhumerus -5.7621 20.5587 -78.4267
rradius 55.2715
rwrist -13.3913
rhand -11.0322 -31.3062
rfingers 7.12502
rthumb 14.9895 -60.7437
lclavicle 3.49861e-014 -2.38542e-014
lhumerus -24.0398 -40.7053 87.636
lradius 74.4416
lwrist 16.0442
lhand -16.0428 -10.7338
lfingers 7.12502
lthumb 10.1588 19.001
rfemur -57.2664 -1.52809 7.75529
rtibia 62.2759
rfoot -16.2066 3.48583
rtoes -1.18155
lfemur -21.1302 37.2151 -7.32122
ltibia 56.3582
lfoot -27.9354 11.787
ltoes -23.6083
609
root 5.83284 14.9914 -1.14691 -162.059 -49.0944 173.047
lowerback 32.209 -3.11795 0.233439
upperback 5.3204 -4.44111 4.29201
thorax -10.4231 -2.46479 6.19534
lowerneck -31.3673 -4.45006 -6.00387
upperneck 17.7004 -3.90417 1.67358
head 10.9419 -1.98779 0.871602
rclavicle -1.51076e-014 1.98785e-014
rhumerus -5.61062 20.4949 -78.5055
rradius 55.536
rwrist -13.3543
rhand -11.0189 -31.6791
rfingers 7.12502
rthumb 15.0023 -61.1156
lclavicle -1.51076e-014 1.98785e-014
lhumerus -24.3519 -40.5642 88.0776
lradius 74.2309
lwrist 16.0556
lhand -18.8865 -9.28128
lfingers 7.12502
lthumb 7.41471 20.5688
rfemur -56.5937 -2.00057 8.11255
rtibia 61.9896
rfoot -16.2762 3.21535
rtoes -2.52482
lfemur -21.0458 36.6296 -6.91964
ltibia 56.3094
lfoot -27.6721 11.738
ltoes -22.9747
610
root 5.85956 15.0004 -1.11887 -162.425 -49.793 173.178
lowerback 32.5067 -3.04954 0.0948748
upperback 5.26882 -4.37867 4.37783
thorax -10.5952 -2.42476 6.36222
lowerneck -31.4211 -3.76906 -5.3448
upperneck 17.9505 -3.06066 0.889644
head 10.9868 -1.66939 0.628319
rclavicle -4.21423e-014 5.1684e-014
rhumerus -5.68929 20.7613 -78.581
rradius 55.948
rwrist -13.4261
rhand -11.4054 -32.198
rfingers 7.12502
rthumb 14.6299 -61.6619
lclavicle -4.21423e-014 5.1684e-014
lhumerus -24.8498 -40.1799 88.6252
lradius 74.1093
lwrist 15.8151
lhand -17.8773 -8.75335
lfingers 7.12502
lthumb 8.38871 21.0601
rfemur -56.1146 -2.4041 8.32349
rtibia 61.7678
rfoot -16.1372 3.03397
rtoes -2.17418
lfemur -21.1992 36.065 -6.65433
ltibia 56.3689
lfoot -27.5054 11.5972
ltoes -22.1945
611
root 5.88762 15.0048 -1.09518 -162.577 -50.5405 173.128
lowerback 32.5955 -2.97993 -0.0159643
upperback 5.2575 -4.31664 4.37204
thorax -10.6444 -2.38784 6.39856
lowerneck -31.5423 -3.15211 -4.72332
upperneck 18.3663 -2.28509 0.124658
head 11.1223 -1.38419 0.382843
rclavicle 5.80451e-014 -5.64548e-014
rhumerus -5.77852 20.6977 -78.6668
rradius 56.2261
rwrist -13.3992
rhand -11.5858 -31.5272
rfingers 7.12502
rthumb 14.4561 -61.0037
lclavicle 5.80451e-014 -5.64548e-014
lhumerus -25.2685 -40.0617 89.0238
lradius 74.155
lwrist 15.8821
lhand -17.3506 -8.6426
lfingers 7.12502
lthumb 8.89699 21.1498
rfemur -55.7009 -2.78671 8.35949
rtibia 61.5962
rfoot -15.9103 2.94364
rtoes -0.48189
lfemur -21.4646 35.4599 -6.566
ltibia 56.4875
lfoot -27.4544 11.4145
ltoes -21.5705
612
root 5.91562 15.0016 -1.07232 -162.842 -51.3826 173.163
lowerback 32.5203 -2.93126 0.208527
upperback 5.36678 -4.19659 4.26348
thorax -10.5201 -2.34579 6.10324
lowerneck -31.5877 -2.75008 -4.41084
upperneck 18.7454 -1.76102 -0.274208
head 11.2549 -1.18484 0.277525
rclavicle -1.17681e-013 1.51076e-014
rhumerus -5.70892 20.1808 -78.7718
rradius 56.2583
rwrist -13.2521
rhand -11.5231 -30.4952
rfingers 7.12502
rthumb 14.5165 -59.9674
lclavicle -1.17681e-013 1.51076e-014
lhumerus -25.4217 -40.3226 89.3041
lradius 74.1142
lwrist 15.8402
lhand -17.3561 -8.60793
lfingers 7.12502
lthumb 8.89169 21.1847
rfemur -55.2494 -3.07428 8.40205
rtibia 61.5069
rfoot -15.8393 2.59404
rtoes 0.148518
lfemur -21.7146 34.83 -6.39278
ltibia 56.6831
lfoot -27.4399 11.2045
ltoes -21.4113
613
root 5.93985 14.9941 -1.05007 -163.07 -52.1615 173.051
lowerback 32.5949 -2.78662 0.282615
upperback 5.4658 -4.0033 4.15674
thorax -10.4658 -2.26371 5.87427
lowerneck -31.6841 -2.32723 -4.05372
upperneck 19.1744 -1.20859 -0.726832
head 11.4192 -0.97921 0.149148
rclavicle -7.39479e-014 3.02153e-014
rhumerus -5.7317 19.6927 -78.8084
rradius 56.3515
rwrist -13.1796
rhand -11.5168 -30.2288
rfingers 7.12502
rthumb 14.5226 -59.7005
lclavicle -7.39479e-014 3.02153e-014
lhumerus -25.5895 -40.6316 89.7999
lradius 73.9827
lwrist 15.6707
lhand -17.7592 -8.59237
lfingers 7.12502
lthumb 8.50277 21.2164
rfemur -54.7694 -3.34528 8.3234
rtibia 61.4882
rfoot -15.9467 2.05401
rtoes -0.956916
lfemur -21.8562 34.3127 -6.26911
ltibia 56.9103
lfoot -27.3963 10.9794
ltoes -21.5543
